# xmcd
#
# Track frame offsets: 
#        187
#        19945
#        40697
#        58320
#        82107
#        100202
#        118202
#        141797
#        172822
#
# Disc length: 2556 seconds
#
# Revision: 0
# Processed by: cddbd v1.5.1PL0 Copyright (c) Steve Scherf et al.
# Submitted via: ExactAudioCopy v0.95a5
#
DISCID=7809fa09
DTITLE=Oleta Adams - Circle Of One
DYEAR=1990
DGENRE=R&B
TTITLE0=Rhythm Of Life
TTITLE1=Get Here
TTITLE2=Circle Of One
TTITLE3=You've Got To Give Me Room
TTITLE4=I've Got To Sing My Song
TTITLE5=I've Got A Right
TTITLE6=Will We Ever Learn
TTITLE7=Everything Must Change
TTITLE8=Don't Look Too Closely
EXTD=
EXTT0=
EXTT1=
EXTT2=
EXTT3=
EXTT4=
EXTT5=
EXTT6=
EXTT7=
EXTT8=
PLAYORDER=
